<svg width="243" height="50" viewBox="0 0 243 50" fill="none" xmlns="http://www.w3.org/2000/svg">
<path d="M44.6667 24.75H36.3333L30.0833 43.5L17.5833 6L11.3333 24.75H3" stroke="#6188FF" stroke-width="5" stroke-linecap="round" stroke-linejoin="round"/>
<path d="M66.9834 40.3486C68.4805 40.3486 69.3828 39.4258 69.3828 37.8672V19H69.5264L77.3809 38.0518C77.873 39.2617 78.6729 39.8154 79.8828 39.8154C81.1133 39.8154 81.8721 39.2617 82.3848 38.0312L90.2393 19H90.3828V37.8672C90.3828 39.4258 91.2646 40.3486 92.7617 40.3486C94.2588 40.3486 95.1406 39.4258 95.1406 37.8672V13.4219C95.1406 11.3096 93.8896 10.0586 91.7773 10.0586C89.9316 10.0586 88.8652 10.8584 88.0859 12.8066L79.9648 32.7402H79.8008L71.6592 12.8066C70.8799 10.8379 69.834 10.0586 68.0088 10.0586C65.8965 10.0586 64.6045 11.3301 64.6045 13.4219V37.8672C64.6045 39.4258 65.4863 40.3486 66.9834 40.3486ZM107.466 40.3896C110.768 40.3896 112.962 38.8721 114.11 36.2266H114.213V37.8262C114.213 39.4668 115.218 40.4102 116.694 40.4102C118.15 40.4102 119.135 39.4668 119.135 37.8262V20.5381C119.135 18.8154 118.068 17.8311 116.592 17.8311C115.095 17.8311 114.028 18.8154 114.028 20.5176V30.833C114.028 33.9912 112.203 36.083 109.25 36.083C106.379 36.083 104.861 34.4014 104.861 31.2842V20.5381C104.861 18.8154 103.795 17.8311 102.298 17.8311C100.801 17.8311 99.7549 18.8154 99.7549 20.5176V32.3096C99.7549 37.334 102.749 40.3896 107.466 40.3896ZM126.025 40.4102C127.522 40.4102 128.568 39.4463 128.568 37.7236V12.6836C128.568 10.9609 127.522 9.99707 126.025 9.99707C124.528 9.99707 123.462 10.9609 123.462 12.6836V37.7236C123.462 39.4463 124.528 40.4102 126.025 40.4102ZM134.331 34.627C134.331 38.3389 136.259 40.2256 140.053 40.2256H140.258C142.596 40.2256 143.908 39.4258 143.908 37.9287C143.908 36.7393 143.211 36.165 141.857 36.042L141.488 36.001C140.012 35.8779 139.438 35.1602 139.438 33.5195V22.1992H141.796C143.067 22.1992 143.847 21.4404 143.847 20.21C143.847 19 143.067 18.2617 141.796 18.2617H139.438V15.3701C139.438 13.7295 138.453 12.7041 136.895 12.7041C135.315 12.7041 134.331 13.7295 134.331 15.3701V18.2617H132.957C131.686 18.2617 130.906 19 130.906 20.21C130.906 21.4404 131.686 22.1992 132.957 22.1992H134.331V34.627ZM149.691 15.2061C151.291 15.2061 152.542 13.9756 152.542 12.4375C152.542 10.8789 151.291 9.66895 149.691 9.66895C148.112 9.66895 146.861 10.8789 146.861 12.4375C146.861 13.9756 148.112 15.2061 149.691 15.2061ZM149.691 40.4102C151.25 40.4102 152.255 39.3848 152.255 37.7236V20.5381C152.255 18.877 151.25 17.8311 149.691 17.8311C148.133 17.8311 147.148 18.877 147.148 20.5176V37.7236C147.148 39.3848 148.133 40.4102 149.691 40.4102ZM159.617 40.3486C161.196 40.3486 162.16 39.3643 162.16 37.6826V19.2461H162.345L176.167 38.7695C177.008 39.959 177.705 40.3486 178.915 40.3486C180.638 40.3486 181.602 39.3848 181.602 37.7031V12.7246C181.602 11.043 180.658 10.0586 179.059 10.0586C177.479 10.0586 176.516 11.043 176.516 12.7246V31.1406H176.331L162.55 11.6377C161.688 10.4688 160.971 10.0586 159.802 10.0586C158.1 10.0586 157.054 11.084 157.054 12.7861V37.6826C157.054 39.3643 158.018 40.3486 159.617 40.3486ZM192.163 40.3486C194.973 40.3486 197.7 38.8926 198.951 36.5342H199.054V38.0518C199.136 39.5693 200.1 40.4102 201.494 40.4102C202.93 40.4102 203.976 39.4873 203.976 37.8467V25.0293C203.976 20.6611 200.469 17.8105 195.075 17.8105C190.912 17.8105 187.549 19.4102 186.441 21.9326C186.216 22.4043 186.093 22.8555 186.093 23.3271C186.093 24.5576 186.995 25.3779 188.246 25.3779C189.107 25.3779 189.784 25.0498 190.317 24.3525C191.589 22.4863 192.881 21.8096 194.87 21.8096C197.393 21.8096 198.931 23.1221 198.931 25.3984V26.957L193.168 27.2852C187.877 27.6133 184.903 29.9307 184.903 33.7861C184.903 37.7031 187.959 40.3486 192.163 40.3486ZM193.722 36.4932C191.507 36.4932 190.01 35.3652 190.01 33.5811C190.01 31.8584 191.425 30.751 193.886 30.5869L198.931 30.2793V31.9404C198.931 34.5654 196.593 36.4932 193.722 36.4932ZM209.513 34.627C209.513 38.3389 211.44 40.2256 215.234 40.2256H215.439C217.777 40.2256 219.09 39.4258 219.09 37.9287C219.09 36.7393 218.393 36.165 217.039 36.042L216.67 36.001C215.193 35.8779 214.619 35.1602 214.619 33.5195V22.1992H216.978C218.249 22.1992 219.028 21.4404 219.028 20.21C219.028 19 218.249 18.2617 216.978 18.2617H214.619V15.3701C214.619 13.7295 213.635 12.7041 212.076 12.7041C210.497 12.7041 209.513 13.7295 209.513 15.3701V18.2617H208.139C206.867 18.2617 206.088 19 206.088 20.21C206.088 21.4404 206.867 22.1992 208.139 22.1992H209.513V34.627ZM231.456 40.4307C235.599 40.4307 238.839 38.8105 240.274 36.042C240.5 35.5908 240.623 35.1396 240.623 34.75C240.623 33.5195 239.721 32.7812 238.572 32.7812C237.854 32.7812 237.383 33.0068 236.85 33.6016C235.209 35.6934 233.712 36.4932 231.415 36.4932C228.093 36.4932 225.98 34.1553 225.98 30.5254V30.3613H238.798C240.315 30.3613 241.177 29.459 241.177 27.9414C241.177 22.0352 237.116 17.8105 231.169 17.8105C224.894 17.8105 220.895 22.2812 220.895 29.2129C220.895 36.2676 224.812 40.4307 231.456 40.4307ZM226.021 26.998C226.227 23.8809 228.318 21.7686 231.189 21.7686C234.061 21.7686 236.07 23.8398 236.173 26.998H226.021Z" fill="#6188FF"/>
</svg>
