<svg width="25" height="25" viewBox="0 0 25 25" fill="none" xmlns="http://www.w3.org/2000/svg">
<path d="M17.1115 3.69964C17.3741 3.437 17.6859 3.22866 18.0291 3.08652C18.3722 2.94438 18.74 2.87122 19.1115 2.87122C19.4829 2.87122 19.8507 2.94438 20.1938 3.08652C20.537 3.22866 20.8488 3.437 21.1115 3.69964C21.3741 3.96229 21.5824 4.27409 21.7246 4.61725C21.8667 4.96041 21.9399 5.32821 21.9399 5.69964C21.9399 6.07108 21.8667 6.43887 21.7246 6.78204C21.5824 7.1252 21.3741 7.437 21.1115 7.69964L7.61145 21.1996L2.11145 22.6996L3.61145 17.1996L17.1115 3.69964Z" stroke="black" stroke-width="2" stroke-linecap="round" stroke-linejoin="round"/>
</svg>
