<svg width="32" height="32" viewBox="0 0 32 32" fill="none" xmlns="http://www.w3.org/2000/svg">
<g clip-path="url(#clip0_43_36)">
<path d="M16 32C13.8406 32 11.7438 31.5781 9.77188 30.7437C7.86563 29.9375 6.15625 28.7812 4.6875 27.3125C3.21875 25.8438 2.0625 24.1344 1.25625 22.2281C0.421875 20.2562 0 18.1594 0 16C0 15.3781 0.503125 14.875 1.125 14.875C1.74687 14.875 2.25 15.3781 2.25 16C2.25 17.8563 2.6125 19.6562 3.33125 21.3531C4.025 22.9906 5.01562 24.4625 6.27812 25.725C7.54062 26.9875 9.0125 27.9812 10.65 28.6719C12.3437 29.3875 14.1437 29.75 16 29.75C17.8563 29.75 19.6562 29.3875 21.3531 28.6688C22.9906 27.975 24.4625 26.9844 25.725 25.7219C26.9875 24.4594 27.9812 22.9875 28.6719 21.35C29.3875 19.6563 29.75 17.8563 29.75 16C29.75 14.1437 29.3875 12.3438 28.6688 10.6469C27.9774 9.01331 26.9767 7.52879 25.7219 6.275C24.4695 5.01849 22.9846 4.01761 21.35 3.32812C19.6563 2.6125 17.8563 2.25 16 2.25C15.3781 2.25 14.875 1.74687 14.875 1.125C14.875 0.503125 15.3781 0 16 0C18.1594 0 20.2562 0.421875 22.2281 1.25625C24.1344 2.0625 25.8438 3.21875 27.3125 4.6875C28.7812 6.15625 29.9344 7.86875 30.7406 9.77188C31.575 11.7438 31.9969 13.8406 31.9969 16C31.9969 18.1594 31.575 20.2562 30.7406 22.2281C29.9375 24.1344 28.7812 25.8438 27.3125 27.3125C25.8438 28.7812 24.1312 29.9344 22.2281 30.7406C20.2562 31.5781 18.1594 32 16 32Z" fill="white"/>
</g>
<defs>
<clipPath id="clip0_43_36">
<rect width="32" height="32" fill="white"/>
</clipPath>
</defs>
</svg>
